<svg xmlns="http://www.w3.org/2000/svg" viewBox="0 0 420 320"><ellipse cx="216" cy="282" rx="165" ry="22" fill="#d9dfb3"/><path d="M40 267q-9-36 10-48m-10 48q16-25 33-23M364 271q24-30 13-56m-13 56q-8-28-23-35" fill="none" stroke="#809359" stroke-width="8" stroke-linecap="round"/><ellipse cx="225" cy="216" rx="117" ry="63" fill="#b88755" stroke="#65472f" stroke-width="5"/><rect x="144" y="241" width="37" height="40" rx="15" fill="#a67549" stroke="#65472f" stroke-width="5"/><rect x="284" y="238" width="37" height="43" rx="15" fill="#a67549" stroke="#65472f" stroke-width="5"/><path d="M112 119q-13-47 17-46 23 1 20 32m87 8q5-45 29-32 20 15-5 44" fill="#b88755" stroke="#65472f" stroke-width="5"/><path d="M103 135q15-39 73-37 92 0 102 71l-4 40q-9 39-65 40h-74q-55-3-56-44v-31q1-26 24-39" fill="#c99a65" stroke="#65472f" stroke-width="5"/><path d="M89 183q38-20 72 0v40H94" fill="#d9b17e"/><path d="M181 160l13 2m43 0 12-3" stroke="#493525" stroke-width="6" stroke-linecap="round"/><ellipse cx="100" cy="188" rx="7" ry="5" fill="#493525"/><path d="M111 211q13 10 25-1" fill="none" stroke="#65472f" stroke-width="4" stroke-linecap="round"/><ellipse cx="208" cy="183" rx="14" ry="7" fill="#e5a18b" opacity=".7"/><circle cx="185" cy="78" r="30" fill="#eea03c" stroke="#b97029" stroke-width="3"/><path d="M185 49q3-20 25-14-6 20-25 14" fill="#73894c"/><path d="M175 60q-10 7-10 16" fill="none" stroke="#ffd089" stroke-width="5" stroke-linecap="round"/><path d="m62 109 5-12 5 12 12 5-12 5-5 12-5-12-12-5Zm270 34 4-10 4 10 10 4-10 4-4 10-4-10-10-4Z" fill="#daa64f"/></svg>